<svg xmlns="http://www.w3.org/2000/svg" version="1.1" xmlns:xlink="http://www.w3.org/1999/xlink" xmlns:svgjs="http://svgjs.dev/svgjs" width="1500" height="568" viewBox="0 0 1500 568"><g transform="matrix(1,0,0,1,-0.9090909090909918,0.1462780261365424)"><svg viewBox="0 0 396 150" data-background-color="#ffffff" preserveAspectRatio="xMidYMid meet" height="568" width="1500" xmlns="http://www.w3.org/2000/svg" xmlns:xlink="http://www.w3.org/1999/xlink"><g id="tight-bounds" transform="matrix(1,0,0,1,0.2400000000000091,-0.03862976042337607)"><svg viewBox="0 0 395.52 150.07725952084675" height="150.07725952084675" width="395.52"><g><svg viewBox="0 0 710.9066555803927 269.7484896961868" height="150.07725952084675" width="395.52"><g><rect width="11.379060836150302" height="269.7484896961868" x="425.3081173721212" y="0" fill="#636365" opacity="1" stroke-width="0" stroke="transparent" fill-opacity="1" class="rect-qz-0" data-fill-palette-color="primary" rx="1%" id="qz-0" data-palette-color="#636365"></rect></g><g transform="matrix(1,0,0,1,0,22.479040808015554)"><svg viewBox="0 0 395.52 224.79040808015571" height="224.79040808015571" width="395.52"><g id="textblocktransform"><svg viewBox="0 0 395.52 224.79040808015571" height="224.79040808015571" width="395.52" id="textblock"><g><svg viewBox="0 0 395.52 126.180202020202" height="126.180202020202" width="395.52"><g transform="matrix(1,0,0,1,0,0)"><svg width="395.52" viewBox="4 -37.6 118.79 37.9" height="126.180202020202" data-palette-color="#636365"><path d="M6.85 0.1L6.45 0.1Q5.35 0.1 4.93-0.2 4.5-0.5 4.5-1L4.5-1 4.5-18.65Q4.5-20.7 4.38-22 4.25-23.3 4.13-24.05 4-24.8 4-25.1L4-25.1Q4-25.35 4.3-25.55 4.6-25.75 5.05-25.88 5.5-26 6-26.05 6.5-26.1 6.9-26.1L6.9-26.1Q7.35-26.1 7.6-25.78 7.85-25.45 8.05-24.73 8.25-24 8.5-22.7L8.5-22.7Q9.5-23.9 10.7-24.73 11.9-25.55 13.25-26 14.6-26.45 15.95-26.45L15.95-26.45Q17.65-26.45 19.03-25.98 20.4-25.5 21.45-24.6 22.5-23.7 23.15-22.3L23.15-22.3Q24.15-23.6 25.43-24.53 26.7-25.45 28.13-25.95 29.55-26.45 30.95-26.45L30.95-26.45Q33.4-26.45 35.18-25.48 36.95-24.5 37.9-22.7 38.85-20.9 38.85-18.35L38.85-18.35 38.85-1Q38.85-0.5 38.43-0.2 38 0.1 36.9 0.1L36.9 0.1 36.5 0.1Q35.4 0.1 34.98-0.2 34.55-0.5 34.55-1L34.55-1 34.55-17.95Q34.55-20.35 33.35-21.58 32.15-22.8 29.75-22.8L29.75-22.8Q28.9-22.8 28.05-22.55 27.2-22.3 26.4-21.8 25.6-21.3 24.85-20.6 24.1-19.9 23.5-18.95L23.5-18.95 23.45-20.65Q23.75-20.1 23.8-19.5 23.85-18.9 23.85-18.35L23.85-18.35 23.85-1Q23.85-0.5 23.43-0.2 23 0.1 21.9 0.1L21.9 0.1 21.5 0.1Q20.4 0.1 19.98-0.2 19.55-0.5 19.55-1L19.55-1 19.55-17.95Q19.55-20.35 18.35-21.58 17.15-22.8 14.75-22.8L14.75-22.8Q13.6-22.8 12.5-22.38 11.4-21.95 10.45-21.18 9.5-20.4 8.8-19.35L8.8-19.35 8.8-1Q8.8-0.5 8.38-0.2 7.95 0.1 6.85 0.1L6.85 0.1ZM57.05 0.3L57.05 0.3Q51.3 0.3 48.22-2.7 45.15-5.7 45.15-12.95L45.15-12.95Q45.15-17.3 46.5-20.3 47.85-23.3 50.47-24.88 53.1-26.45 56.85-26.45L56.85-26.45Q60.25-26.45 62.52-24.98 64.8-23.5 65.92-20.6 67.05-17.7 67.05-13.5L67.05-13.5Q67.05-13.05 66.8-12.55 66.55-12.05 66.15-11.7 65.75-11.35 65.3-11.35L65.3-11.35 49.55-11.35Q49.65-7.2 51.5-5.25 53.35-3.3 57.15-3.3L57.15-3.3Q59.55-3.3 61.22-3.85 62.9-4.4 63.87-4.95 64.85-5.5 65.1-5.5L65.1-5.5Q65.45-5.5 65.72-5.08 66-4.65 66.2-4.1 66.4-3.55 66.4-3.15L66.4-3.15Q66.4-2.7 65.67-2.13 64.95-1.55 63.67-0.98 62.4-0.4 60.7-0.05 59 0.3 57.05 0.3ZM49.55-14.95L49.55-14.95 62.75-14.95Q62.75-18.9 61.1-20.88 59.45-22.85 56.4-22.85L56.4-22.85Q54.2-22.85 52.7-21.88 51.2-20.9 50.4-19.15 49.6-17.4 49.55-14.95ZM79.45 0.3L79.45 0.3Q77.45 0.3 76.12-0.45 74.8-1.2 74.12-2.68 73.45-4.15 73.45-6.3L73.45-6.3 73.45-36.5Q73.45-37.05 73.87-37.33 74.3-37.6 75.4-37.6L75.4-37.6 75.8-37.6Q76.9-37.6 77.32-37.33 77.75-37.05 77.75-36.5L77.75-36.5 77.75-6.3Q77.75-4.6 78.27-4 78.8-3.4 80.1-3.4L80.1-3.4Q81.25-3.4 81.75-3.65 82.25-3.9 82.6-3.9L82.6-3.9Q82.85-3.9 83.02-3.58 83.2-3.25 83.27-2.8 83.35-2.35 83.37-1.95 83.4-1.55 83.4-1.4L83.4-1.4Q83.4-0.9 82.72-0.5 82.05-0.1 81.12 0.1 80.2 0.3 79.45 0.3ZM94.29 0.3L94.29 0.3Q92.29 0.3 90.97-0.45 89.64-1.2 88.97-2.68 88.29-4.15 88.29-6.3L88.29-6.3 88.29-36.5Q88.29-37.05 88.72-37.33 89.14-37.6 90.24-37.6L90.24-37.6 90.64-37.6Q91.74-37.6 92.17-37.33 92.59-37.05 92.59-36.5L92.59-36.5 92.59-6.3Q92.59-4.6 93.12-4 93.64-3.4 94.94-3.4L94.94-3.4Q96.09-3.4 96.59-3.65 97.09-3.9 97.44-3.9L97.44-3.9Q97.69-3.9 97.87-3.58 98.04-3.25 98.12-2.8 98.19-2.35 98.22-1.95 98.24-1.55 98.24-1.4L98.24-1.4Q98.24-0.9 97.57-0.5 96.89-0.1 95.97 0.1 95.04 0.3 94.29 0.3ZM110.04 0.3L110.04 0.3Q106.39 0.3 103.94-1.53 101.49-3.35 101.49-7.2L101.49-7.2Q101.49-9.75 102.34-11.5 103.19-13.25 105.12-14.3 107.04-15.35 110.22-15.83 113.39-16.3 117.99-16.3L117.99-16.3 117.99-18.65Q117.99-19.8 117.49-20.75 116.99-21.7 115.82-22.28 114.64-22.85 112.59-22.85L112.59-22.85Q110.34-22.85 108.62-22.35 106.89-21.85 105.82-21.35 104.74-20.85 104.39-20.85L104.39-20.85Q104.14-20.85 103.92-21.1 103.69-21.35 103.49-21.78 103.29-22.2 103.17-22.65 103.04-23.1 103.04-23.45L103.04-23.45Q103.04-23.85 103.89-24.35 104.74-24.85 106.17-25.33 107.59-25.8 109.32-26.13 111.04-26.45 112.79-26.45L112.79-26.45Q115.04-26.45 116.82-25.93 118.59-25.4 119.79-24.38 120.99-23.35 121.64-21.9 122.29-20.45 122.29-18.6L122.29-18.6 122.29-7.5Q122.29-5.45 122.42-4.15 122.54-2.85 122.67-2.13 122.79-1.4 122.79-1.05L122.79-1.05Q122.79-0.8 122.49-0.6 122.19-0.4 121.74-0.28 121.29-0.15 120.79-0.08 120.29 0 119.89 0L119.89 0Q119.44 0 119.19-0.33 118.94-0.65 118.74-1.43 118.54-2.2 118.29-3.45L118.29-3.45Q117.39-2.4 116.17-1.55 114.94-0.7 113.42-0.2 111.89 0.3 110.04 0.3ZM110.24-3.35L110.24-3.35Q112.04-3.35 113.42-3.85 114.79-4.35 115.92-5.13 117.04-5.9 117.99-6.8L117.99-6.8 117.99-12.7Q114.29-12.7 111.94-12.43 109.59-12.15 108.29-11.55 106.99-10.95 106.49-9.93 105.99-8.9 105.99-7.45L105.99-7.45Q105.99-5.45 107.07-4.4 108.14-3.35 110.24-3.35Z" opacity="1" transform="matrix(1,0,0,1,0,0)" fill="#636365" class="wordmark-text-0" data-fill-palette-color="primary" id="text-0"></path></svg></g></svg></g><g transform="matrix(1,0,0,1,163.310208,155.96831939232322)"><svg viewBox="0 0 232.209792 68.8220886878325" height="68.8220886878325" width="232.209792"><g transform="matrix(1,0,0,1,0,0)"><svg width="232.209792" viewBox="1.64 -41.41 142.24 42.17" height="68.8220886878325" data-palette-color="#89939e"><path d="M3.93 0L3.93-24.34Q3.93-27.39 1.64-28.98L1.64-28.98 2.32-30Q4.17-28.76 4.88-26.42L4.88-26.42Q5.15-25.54 5.15-24.41L5.15-24.41 12.21-29.93Q14.72-27.12 15.45-24.29L15.45-24.29 22.63-29.93Q25.73-26.51 26.76-22.46L26.76-22.46Q27.12-21.04 27.12-19.56L27.12-19.56Q27.12-17.58 26.73-12.82 26.34-8.06 26.34-6.13L26.34-6.13Q26.34-2.71 29.22-0.42L29.22-0.42 28.49 0.56Q25.78-1.54 25.29-4.27L25.29-4.27Q25.12-5.32 25.12-6.69L25.12-6.69Q25.12-7.54 25.2-8.54L25.2-8.54Q25.37-11.08 25.63-14.32 25.9-17.55 25.9-19.19L25.9-19.19Q25.9-24.07 22.46-28.25L22.46-28.25 15.75-22.97Q15.92-21.66 15.92-20.58L15.92-20.58 15.92 0 14.7 0 14.7-20.58Q14.7-25.1 12.04-28.25L12.04-28.25 5.15-22.88 5.15 0 3.93 0ZM36.47-26.1L41.62-30Q45.77-27.25 45.77-23.51L45.77-23.51 45.77-10.35Q45.77-7.89 44.53-6.47L44.53-6.47Q43.99-5.86 43.11-5.2L43.11-5.2 35.13 0.76 33.81 0.1 33.81-20.26Q33.81-24.1 36.47-26.1L36.47-26.1ZM41.62-28.52L37.18-25.1Q35.03-23.49 35.03-20.26L35.03-20.26 35.03-0.66 42.43-6.05Q43.7-6.98 44.14-8.02 44.58-9.06 44.58-10.35L44.58-10.35 44.58-23.51Q44.58-26.42 41.62-28.52L41.62-28.52ZM60.35-0.44L60.05 0.76Q54.39-0.85 54.39-6.64L54.39-6.64 54.37-25.81 53.36-25.81Q52.17-25.81 50.46-24.44L50.46-24.44Q50.02-24.07 49.56-23.75L49.56-23.75 48.87-24.78Q51.73-27.03 53.36-27.03L53.36-27.03 54.44-27.03 56.73-35.06 57.91-34.72 55.71-27.03 62.4-27.03 62.4-25.81 55.59-25.81 55.59-15.23Q55.59-11.3 55.6-6.53 55.61-1.76 60.35-0.44L60.35-0.44ZM68.82-26.1L73.97-30Q78.12-27.25 78.12-23.51L78.12-23.51 78.12-10.35Q78.12-7.89 76.87-6.47L76.87-6.47Q76.34-5.86 75.46-5.2L75.46-5.2 67.47 0.76 66.15 0.1 66.15-20.26Q66.15-24.1 68.82-26.1L68.82-26.1ZM73.97-28.52L69.52-25.1Q67.38-23.49 67.38-20.26L67.38-20.26 67.38-0.66 74.77-6.05Q76.04-6.98 76.48-8.02 76.92-9.06 76.92-10.35L76.92-10.35 76.92-23.51Q76.92-26.42 73.97-28.52L73.97-28.52ZM85.81 0.76L84.49 0.34 84.49-20.8Q84.49-22.39 85.34-23.29L85.34-23.29 88.66-26.98Q84.37-30.57 83.58-33.74L83.58-33.74Q83.29-34.86 83.29-35.94L83.29-35.94Q83.29-37.79 84.05-39.28 84.8-40.77 85.71-41.41L85.71-41.41 86.39-40.41Q85.17-39.62 84.66-37.6L84.66-37.6Q84.49-36.91 84.49-35.89L84.49-35.89Q84.49-33.69 85.74-31.79 87-29.88 90.14-27.25 93.28-24.61 94.37-22.85L94.37-22.85Q96.45-19.58 96.45-16.06L96.45-16.06Q96.45-12.52 95.79-10.69L95.79-10.69Q94.64-7.47 92.2-5.2L92.2-5.2 85.81 0.76ZM95.13-13.35L95.13-13.35Q95.25-14.7 95.25-16.26L95.25-16.26Q95.25-19.17 93.67-21.72 92.08-24.27 89.59-26.22L89.59-26.22 86.24-22.51Q85.71-21.92 85.71-20.8L85.71-20.8 85.71-0.76 91.4-6.01Q94.74-9.03 95.13-13.35ZM111.61-4.47L112.34-3.44 106.99 0.73Q104.33-0.05 102.83-1.89 101.33-3.74 101.33-6.64L101.33-6.64 101.33-19.48Q101.33-22.05 102.15-23.86 102.97-25.68 104.94-27.08L104.94-27.08 109.19-30.03 113.1-22.63 102.55-14.67 102.55-6.64Q102.55-2.1 106.68-0.63L106.68-0.63 111.61-4.47ZM102.55-19.48L102.55-16.21 111.63-22.92 108.8-28.32 105.65-26.07Q102.55-23.93 102.55-19.48L102.55-19.48ZM132.36-0.24L131.65 0.76Q128.92-1.27 128.4-4.15L128.4-4.15 121.91 0.76Q118.93 0.22 117.86-2.1L117.86-2.1Q117.49-2.88 117.49-3.93L117.49-3.93Q117.49-4 117.49-4.05L117.49-4.05 117.49-17.04Q117.49-21.66 120.81-24.17L120.81-24.17 128.55-30.03 129.45-29.54 129.45-5.96Q129.45-4.3 130.08-2.91 130.7-1.51 132.36-0.24L132.36-0.24ZM118.71-17.04L118.71-4.05Q118.71-1.34 121.54-0.56L121.54-0.56 128.26-5.62 128.26-28.44 121.69-23.34Q120.3-22.27 119.5-20.81 118.71-19.36 118.71-17.04L118.71-17.04ZM143.27-41.41L143.88-40.31Q140.27-38.38 139.12-34.47L139.12-34.47Q138.73-33.15 138.73-31.62L138.73-31.62 138.73 0 137.51 0 137.51-31.62Q137.51-36.5 141.02-39.77L141.02-39.77Q142.07-40.75 143.27-41.41L143.27-41.41Z" opacity="1" transform="matrix(1,0,0,1,0,0)" fill="#89939e" class="slogan-text-1" data-fill-palette-color="secondary" id="text-1"></path></svg></g></svg></g></svg></g></svg></g><g transform="matrix(1,0,0,1,466.47529558039275,89.78880936542635)"><svg viewBox="0 0 244.43135999999998 90.17087096533412" height="90.17087096533412" width="244.43135999999998"><g><svg xmlns="http://www.w3.org/2000/svg" xmlns:xlink="http://www.w3.org/1999/xlink" version="1.1" x="0" y="0" viewBox="0.2962725501305952 33.94692138280563 99.40639946256867 36.67107861719437" enable-background="new 0 33.947 100 36.669" xml:space="preserve" width="244.43135999999998" height="90.17087096533412" class="icon-icon-0" data-fill-palette-color="accent" id="icon-0"><g fill="#89939e" data-fill-palette-color="accent"><path d="M15.524 55.357c-4.213 0-7.629 3.418-7.629 7.631s3.416 7.63 7.629 7.63c4.215 0 7.63-3.417 7.63-7.63S19.738 55.357 15.524 55.357zM15.524 66.189c-1.778 0-3.219-1.441-3.219-3.22s1.441-3.221 3.219-3.221c1.777 0 3.219 1.442 3.219 3.221C18.742 64.748 17.301 66.189 15.524 66.189z" fill="#89939e" data-fill-palette-color="accent"></path><path d="M82.53 55.355c-4.215 0-7.632 3.417-7.632 7.629 0 4.214 3.417 7.631 7.632 7.631 4.212 0 7.63-3.417 7.63-7.631C90.16 58.772 86.742 55.355 82.53 55.355zM82.53 66.189c-1.778 0-3.222-1.441-3.222-3.22s1.443-3.221 3.222-3.221 3.223 1.442 3.223 3.221S84.309 66.189 82.53 66.189z" fill="#89939e" data-fill-palette-color="accent"></path><path d="M78.23 44.515c0 0-18.764-8.75-24.754-10.018-5.987-1.268-26.597-0.115-28.554 1.151l-11.515 5.64L2.125 46.815 0.298 57.465c0 0-0.05 6.318 0.388 7.773h5.527l0.071-2.25c0-5.103 4.138-9.24 9.243-9.24 5.103 0 9.238 4.138 9.238 9.24l0.158 2.25h48.359l0.007-2.83c0-5.103 3.856-8.87 8.959-8.87s9.523 3.768 9.523 8.87l0.19 2.616c0 0 5.845 0.33 7.688-0.361 0 0 0.69-9.787-2.878-13.357C93.603 48.308 87.213 46.44 78.23 44.515zM25.956 45.896c0 0 2.363-5.01 4.943-6.924 1.911-1.627 12.446-1.583 12.446-1.583l0.389 9.715L25.956 45.896zM71.613 48.198l-24.698-0.978-0.577-9.846c9.154-0.344 19.576 4.549 25.563 8.06C77.89 48.946 71.613 48.198 71.613 48.198z" fill="#89939e" data-fill-palette-color="accent"></path></g></svg></g></svg></g></svg></g><defs></defs></svg><rect width="395.52" height="150.07725952084675" fill="none" stroke="none" visibility="hidden"></rect></g></svg></g></svg>